#!OML:ASF I:\Actors\actors\Patient Classification 1\Patient 1\Session 1\Subject1.ASF
:FULLY-SPECIFIED
:DEGREES
1342
root 0.455535 17.7425 8.11654 22.6681 -24.6375 -8.3223
lowerback 8.32779 -4.13653 4.79298
upperback 6.27201 -5.34435 6.11683
thorax 2.05554 -2.69985 4.02572
lowerneck -9.04728 8.96296 12.8913
upperneck 26.084 8.69072 3.22173
head 10.3936 5.41573 0.0307544
rclavicle -1.4561e-014 -7.66315e-014
rhumerus 84.2246 72.0194 2.25883
rradius 52.3069
rwrist -32.7289
rhand 15.4223 -37.5477
rfingers 7.12502
rthumb 40.249 -62.6982
lclavicle -1.4561e-014 -7.66315e-014
lhumerus 12.508 -74.7696 43.7023
lradius 63.2852
lwrist 58.8939
lhand -12.7383 -12.0691
lfingers 7.12502
lthumb 13.3454 17.4835
rfemur -29.1931 24.2366 13.326
rtibia 11.5336
rfoot -7.51953 -7.14833
rtoes -10.8854
lfemur -11.8137 -21.558 -7.84117
ltibia 1.33088
lfoot -26.6651 51.4512
ltoes 20.2161
1343
root 0.466935 17.7458 8.14695 22.6961 -24.7381 -8.3519
lowerback 8.2302 -4.05452 4.95195
upperback 6.22224 -5.23883 6.37899
thorax 2.06746 -2.6501 4.2009
lowerneck -9.4985 8.7533 12.4339
upperneck 27.0803 8.23031 3.69345
head 10.7822 5.24109 0.254139
rclavicle -3.8266e-014 -1.98785e-014
rhumerus 84.6554 72.2931 3.55053
rradius 51.9561
rwrist -32.3002
rhand 15.3617 -38.3617
rfingers 7.12502
rthumb 40.192 -63.5295
lclavicle -3.8266e-014 -1.98785e-014
lhumerus 24.0383 -76.2748 34.3651
lradius 60.7455
lwrist 58.1255
lhand -13.7923 -12.9614
lfingers 7.12502
lthumb 12.3294 16.6551
rfemur -28.806 24.4124 13.2199
rtibia 10.8693
rfoot -7.3098 -7.3788
rtoes -10.7985
lfemur -11.7518 -21.6128 -7.94857
ltibia 1.40711
lfoot -26.9472 51.4475
ltoes 20.4193
1344
root 0.474682 17.7508 8.17867 22.5225 -24.5973 -8.20994
lowerback 8.07832 -3.90568 5.07488
upperback 6.21874 -5.0573 6.67311
thorax 2.16084 -2.56362 4.4199
lowerneck -9.49902 8.36965 12.047
upperneck 27.4891 7.71686 3.8114
head 10.8829 4.99674 0.295849
rclavicle 5.88403e-014 -4.09496e-014
rhumerus 84.308 72.5152 4.408
rradius 51.6735
rwrist -32.1805
rhand 14.3393 -38.2485
rfingers 7.12502
rthumb 39.2294 -63.7024
lclavicle 5.88403e-014 -4.09496e-014
lhumerus 37.284 -76.9512 23.863
lradius 57.8791
lwrist 56.7442
lhand -13.8798 -12.8405
lfingers 7.12502
lthumb 12.245 16.7811
rfemur -28.2229 24.4919 13.0525
rtibia 10.1981
rfoot -7.16755 -7.77022
rtoes -10.6853
lfemur -11.631 -21.7843 -8.21339
ltibia 1.49824
lfoot -26.8809 51.3874
ltoes 20.2879
1345
root 0.481857 17.7554 8.21077 22.1479 -24.256 -7.81792
lowerback 7.94869 -3.70707 5.06057
upperback 6.16044 -4.80999 6.99733
thorax 2.19321 -2.44954 4.74787
lowerneck -8.88201 7.82986 11.4758
upperneck 27.3477 7.16084 3.88251
head 10.6442 4.69348 0.300744
rclavicle 2.22639e-014 -9.42239e-014
rhumerus 82.7881 72.8425 4.48507
rradius 51.6718
rwrist -32.803
rhand 12.2323 -36.915
rfingers 7.12502
rthumb 37.2404 -62.917
lclavicle 2.22639e-014 -9.42239e-014
lhumerus 47.2174 -76.8185 17.088
lradius 54.7776
lwrist 54.139
lhand -13.2325 -12.461
lfingers 7.12502
lthumb 12.8691 17.1222
rfemur -27.5582 24.426 12.7237
rtibia 9.68903
rfoot -7.1363 -8.26536
rtoes -10.6412
lfemur -11.5296 -21.7581 -8.75675
ltibia 1.69064
lfoot -25.9524 51.1183
ltoes 19.3011
1346
root 0.488846 17.7591 8.24397 21.6677 -23.7332 -7.33926
lowerback 7.88517 -3.50504 4.93864
upperback 6.02113 -4.55137 7.43932
thorax 2.11916 -2.33733 5.26982
lowerneck -7.88944 7.1521 10.7049
upperneck 26.9357 6.56412 3.77033
head 10.2283 4.32414 0.250822
rclavicle -2.0276e-014 8.82604e-014
rhumerus 80.3297 73.3059 3.97716
rradius 52.1226
rwrist -34.0576
rhand 11.5399 -36.2167
rfingers 7.12502
rthumb 36.5853 -62.3872
lclavicle -2.0276e-014 8.82604e-014
lhumerus 50.6197 -76.2218 17.0864
lradius 51.7158
lwrist 50.8148
lhand -11.6681 -12.4703
lfingers 7.12502
lthumb 14.3768 17.0118
rfemur -26.8368 24.2881 12.3884
rtibia 9.33779
rfoot -7.17061 -8.83685
rtoes -10.8
lfemur -11.451 -21.4775 -9.39262
ltibia 1.96682
lfoot -24.5583 50.5663
ltoes 17.8226
